<svg width="176" height="192" viewBox="0 0 176 192" fill="none" xmlns="http://www.w3.org/2000/svg">
<path d="M45.2573 191.086L57.3164 165.943H118.416L130.743 191.086H45.2573Z" fill="#F07CC3"/>
<circle cx="88" cy="88" r="85.4857" fill="#CBCBFF" stroke="#532461" stroke-width="5.02857"/>
<path d="M67.8858 47.7714C62.8572 53.6381 52.2972 65.8743 50.2858 67.8857L27.6572 98.0571L17.6001 125.714L35.2001 105.6L57.8287 72.9143L67.8858 47.7714Z" fill="#EE8D94"/>
<path d="M32.8829 57.9006C30.5012 56.4722 27.4339 57.261 26.31 59.8007C22.8032 67.7252 18.9779 80.5034 20.4306 86.3094C22.2111 93.4251 26.7454 99.5421 33.036 103.315C39.3266 107.087 46.8582 108.207 53.974 106.426C59.7775 104.974 68.2615 95.0002 73.24 87.9583C74.8432 85.6906 74.0771 82.6056 71.6954 81.1772L52.2892 69.5389L32.8829 57.9006Z" fill="#853594"/>
<path d="M143.697 57.9006C146.078 56.4722 149.146 57.261 150.27 59.8007C153.776 67.7252 157.602 80.5034 156.149 86.3094C154.368 93.4251 149.834 99.5421 143.544 103.315C137.253 107.087 129.721 108.207 122.606 106.426C116.802 104.974 108.318 95.0002 103.34 87.9583C101.736 85.6906 102.502 82.6056 104.884 81.1772L124.29 69.5389L143.697 57.9006Z" fill="#853594"/>
<path d="M80.4572 103.086H81.7143C82.4086 103.086 82.9714 103.649 82.9714 104.343C82.9714 105.037 83.5343 105.6 84.2286 105.6H90.5143H91.7714C92.4657 105.6 93.0286 105.037 93.0286 104.343C93.0286 103.649 93.5914 103.086 94.2857 103.086H95.5429C96.9315 103.086 98.0572 101.96 98.0572 100.571V93.0286C98.0572 91.64 96.9315 90.5143 95.5429 90.5143H94.2857C93.5914 90.5143 93.0286 89.9514 93.0286 89.2571C93.0286 88.5628 92.4657 88 91.7714 88H84.2286C83.5343 88 82.9714 88.5628 82.9714 89.2571C82.9714 89.9514 82.4086 90.5143 81.7143 90.5143H80.4572C79.0686 90.5143 77.9429 91.64 77.9429 93.0286V100.571C77.9429 101.96 79.0686 103.086 80.4572 103.086Z" fill="#C5418E"/>
<path d="M135.772 93.0286C130.744 100.571 130.744 108.114 138.286 105.6C145.829 103.086 150.858 98.0571 153.372 93.0286C155.886 88 150.858 85.4857 150.858 85.4857C150.858 85.4857 140.801 85.4857 135.772 93.0286Z" fill="#FFC700"/>
<path d="M44.084 93.0286C49.1126 100.571 50.0191 108.863 40.2288 105.6C30.4384 102.337 28.2944 100.571 25.7802 95.5429C23.2659 90.5143 28.9983 85.4857 28.9983 85.4857C28.9983 85.4857 39.0555 85.4857 44.084 93.0286Z" fill="#FFC700"/>
<path d="M105.6 133.257C105.6 134.646 97.7201 138.286 87.9999 138.286C78.2797 138.286 70.3999 134.646 70.3999 133.257C70.3999 131.869 78.2797 130.743 87.9999 130.743C97.7201 130.743 105.6 131.869 105.6 133.257Z" fill="#C5418E"/>
<path d="M110.629 123.2C110.629 122.156 109.978 121.122 108.718 120.166C107.458 119.21 105.615 118.351 103.308 117.645C101 116.938 98.2777 116.399 95.3125 116.062C92.3473 115.724 89.2041 115.596 86.0821 115.684C82.9601 115.773 79.9273 116.076 77.1757 116.576C74.4241 117.076 72.0138 117.76 70.0975 118.587C68.1811 119.413 66.8004 120.363 66.0429 121.376C65.2853 122.39 65.1675 123.445 65.6967 124.474L75.7896 123.897C75.4999 123.334 75.5644 122.756 75.9791 122.202C76.3938 121.647 77.1497 121.127 78.1989 120.674C79.2481 120.222 80.5676 119.847 82.074 119.574C83.5805 119.3 85.2409 119.134 86.9501 119.085C88.6593 119.037 90.3801 119.107 92.0035 119.292C93.6268 119.477 95.1174 119.772 96.3807 120.159C97.644 120.546 98.6526 121.016 99.3425 121.539C100.032 122.063 100.389 122.628 100.389 123.2H110.629Z" fill="#C5418E"/>
<path d="M105.6 158.4C105.6 166.732 103.086 181.029 87.9999 181.029C70.3999 181.029 70.3999 166.732 70.3999 158.4C70.3999 150.069 78.2797 150.858 87.9999 150.858C97.7201 150.858 105.6 150.069 105.6 158.4Z" fill="#C5418E"/>
</svg>
